<svg width="18" height="17" viewBox="0 0 18 17" fill="none" xmlns="http://www.w3.org/2000/svg">
<path fill-rule="evenodd" clip-rule="evenodd" d="M0 8.75C0 6.67887 0.371925 4.85176 0.936787 3.77446C1.20713 3.11971 1.66399 2.56239 2.24055 2.1701C3.27566 1.41343 5.91311 0.875 9 0.875C12.0869 0.875 14.7243 1.41343 15.7594 2.1701C16.336 2.56239 16.7929 3.11971 17.0632 3.77446C17.6281 4.85165 18 6.67887 18 8.75C18 10.8211 17.6281 12.6482 17.0632 13.7255C16.7929 14.3803 16.336 14.9376 15.7594 15.3299C14.7243 16.0866 12.0869 16.625 9 16.625C5.91311 16.625 3.27566 16.0866 2.24055 15.3299C1.66399 14.9376 1.20713 14.3803 0.936787 13.7255C0.371925 12.6482 0 10.8211 0 8.75ZM7.68679 12.009C7.58902 12.0818 7.46786 12.125 7.33669 12.125C7.01291 12.125 6.75 11.8621 6.75 11.5383V5.96169C6.75 5.63791 7.01291 5.375 7.33669 5.375C7.46809 5.375 7.58936 5.41831 7.68724 5.49133L12.1089 8.23925L12.1071 8.24307C12.2688 8.35366 12.375 8.53951 12.375 8.75C12.375 8.96049 12.2688 9.14634 12.1071 9.25692L12.1089 9.26075L7.68679 12.009Z" fill="white"/>
</svg>
