<svg width="20" height="20" viewBox="0 0 20 20" fill="none" xmlns="http://www.w3.org/2000/svg">
<path fill-rule="evenodd" clip-rule="evenodd" d="M14.4 0H5.60001C2.50876 0 0 2.50875 0 5.6V14.4C0 17.4913 2.50876 20 5.60001 20H14.4C17.4912 20 20 17.4913 20 14.4V5.6C20 2.50875 17.4912 0 14.4 0ZM14.35 17.5H5.64999C3.91124 17.5 2.5 16.0887 2.5 14.35V5.65C2.5 3.91125 3.91124 2.5 5.64999 2.5H14.35C16.0888 2.5 17.5 3.91125 17.5 5.65V14.35C17.5 16.0887 16.0888 17.5 14.35 17.5ZM15 6.25C15.69 6.25 16.25 5.69 16.25 5C16.25 4.31 15.69 3.75 15 3.75C14.31 3.75 13.75 4.31 13.75 5C13.75 5.69 14.31 6.25 15 6.25ZM10 15C12.76 15 15 12.76 15 10C15 7.24 12.76 5 10 5C7.24 5 5 7.24 5 10C5 12.76 7.24 15 10 15ZM10 12.5C11.38 12.5 12.5 11.38 12.5 10C12.5 8.62 11.38 7.5 10 7.5C8.62 7.5 7.5 8.62 7.5 10C7.5 11.38 8.62 12.5 10 12.5Z" fill="white"/>
</svg>
