<svg width="10" height="17" viewBox="0 0 10 17" fill="none" xmlns="http://www.w3.org/2000/svg">
<path fill-rule="evenodd" clip-rule="evenodd" d="M0.869861 11.7453C0.356262 11.5149 0 11.0176 0 10.4411C0 9.64592 0.67656 9.00078 1.50933 9.00078C1.75995 9.00078 1.99596 9.05972 2.205 9.1626C3.04901 9.55697 3.99754 9.77773 5.00001 9.77773C6.00473 9.77773 6.95437 9.5559 7.80063 9.16046C8.00742 9.05865 8.2423 9.00078 8.49067 9.00078C9.32344 9.00078 10 9.64592 10 10.4411C10 11.0176 9.64262 11.517 9.12789 11.7463C8.55923 12.0132 7.95685 12.2264 7.32974 12.3786L9.392 14.6077C9.94381 15.2035 9.88425 16.1144 9.25939 16.6406C8.63453 17.1657 7.67925 17.1089 7.12744 16.513L4.99888 14.2133L2.87031 16.513C2.3185 17.1089 1.36323 17.1657 0.738366 16.6406C0.113506 16.1144 0.0539464 15.2035 0.605756 14.6077L2.66801 12.3786C2.0409 12.2254 1.43965 12.0121 0.869861 11.7453ZM5.00001 0C7.55115 0 9.62352 1.97612 9.62352 4.40877C9.62352 6.84141 7.55115 8.81753 5.00001 8.81753C2.44887 8.81753 0.376497 6.84141 0.376497 4.40877C0.376497 1.97612 2.44887 0 5.00001 0ZM5.00001 2.67805C6.00136 2.67805 6.81501 3.45393 6.81501 4.40877C6.81501 5.36361 6.00136 6.13948 5.00001 6.13948C3.99866 6.13948 3.18499 5.36361 3.18499 4.40877C3.18499 3.45393 3.99866 2.67805 5.00001 2.67805Z" fill="white"/>
</svg>
