<svg width="10" height="10" viewBox="0 0 10 10" fill="none" xmlns="http://www.w3.org/2000/svg">
<path d="M5.57615 7.02786C3.50529 7.02786 2.24955 5.59221 2.20182 3.20557H3.25194C3.28498 4.95699 4.08175 5.70236 4.69493 5.8529V3.20557H5.70099V4.71833C6.29214 4.65224 6.909 3.96562 7.11461 3.20557H8.10231C7.94443 4.1382 7.2725 4.82848 6.79884 5.11121C7.2725 5.33885 8.03989 5.94102 8.33363 7.02786H7.2468C7.01915 6.30085 6.4537 5.73907 5.70099 5.66197V7.02786H5.57615ZM5.05476 9.59073H5.43663C7.51116 9.59073 8.55026 9.59073 9.19282 8.94818C9.8317 8.30195 9.8317 7.26285 9.8317 5.19566V4.80645C9.8317 2.73559 9.8317 1.70016 9.19282 1.05393C8.55026 0.411377 7.51116 0.411377 5.43663 0.411377H5.05476C2.98023 0.411377 1.94113 0.411377 1.2949 1.05393C0.648672 1.69649 0.652344 2.73926 0.652344 4.80645V5.19566C0.652344 7.26652 0.652344 8.30195 1.2949 8.94818C1.93745 9.5944 2.98023 9.59073 5.05476 9.59073Z" fill="#AAAEB3"/>
</svg>
