<svg width="81" height="17" viewBox="0 0 81 17" fill="none" xmlns="http://www.w3.org/2000/svg">
<path fill-rule="evenodd" clip-rule="evenodd" d="M68.2872 4.75832C68.3667 8.73459 70.4589 11.1265 73.909 11.1265H74.117V8.85082C75.3711 8.97929 76.3132 9.91524 76.6924 11.1265H78.5032C78.0138 9.31574 76.7353 8.3125 75.9461 7.93322C76.7353 7.46219 77.8547 6.31213 78.1178 4.75832H76.4722C76.1296 6.02461 75.1019 7.16855 74.117 7.27867V4.75832H72.4409V9.16892C71.4193 8.91811 70.0918 7.67629 70.0368 4.75832H68.2872ZM73.6766 15.3964H73.0404H72.9821C69.5645 15.3964 67.8407 15.3964 66.7762 14.3258C65.7057 13.2492 65.7057 11.5241 65.7057 8.07392V7.42548V7.36742C65.7057 3.96186 65.7056 2.23806 66.7762 1.17356C67.8529 0.103027 69.5841 0.103027 73.0404 0.103027H73.6766C77.1329 0.103027 78.8641 0.103027 79.9346 1.17356C80.999 2.25021 80.999 3.9753 80.999 7.42548V8.07392C80.999 11.518 80.999 13.2492 79.9346 14.3258C78.8641 15.3964 77.1329 15.3964 73.6766 15.3964ZM10.7832 3.10434V16.0062H12.8218V10.9522C13.1882 11.4031 13.6609 11.7827 14.24 12.0912C14.8191 12.3878 15.4809 12.5361 16.2255 12.5361C17.0882 12.5361 17.8623 12.3344 18.5478 11.931C19.2333 11.5158 19.7651 10.9463 20.1433 10.2226C20.5333 9.48706 20.7283 8.6566 20.7283 7.73122C20.7283 6.80584 20.5333 5.98131 20.1433 5.25762C19.7651 4.52206 19.2333 3.9526 18.5478 3.54923C17.8623 3.134 17.0882 2.92638 16.2255 2.92638C15.4573 2.92638 14.7778 3.09248 14.1868 3.42466C13.5959 3.74499 13.1114 4.13649 12.7332 4.59918L12.3077 3.10434H10.7832ZM17.8033 9.8845C17.2714 10.4302 16.5801 10.7031 15.7291 10.7031C14.8664 10.7031 14.1632 10.4302 13.6196 9.8845C13.0877 9.3269 12.8218 8.60914 12.8218 7.73122C12.8218 6.8533 13.0877 6.14147 13.6196 5.59574C14.1632 5.03814 14.8664 4.75934 15.7291 4.75934C16.5801 4.75934 17.2714 5.03814 17.8033 5.59574C18.3351 6.14147 18.601 6.8533 18.601 7.73122C18.601 8.60914 18.3351 9.3269 17.8033 9.8845ZM0.361328 12.3581H2.39999V4.97289H6.44186V12.3581H8.48052V3.10434H0.361328V12.3581ZM26.8998 12.5361C25.9543 12.5361 25.1034 12.3344 24.3471 11.931C23.6025 11.5158 23.0175 10.9463 22.592 10.2226C22.1784 9.48706 21.9716 8.6566 21.9716 7.73122C21.9716 6.80584 22.1784 5.98131 22.592 5.25762C23.0175 4.52206 23.6025 3.9526 24.3471 3.54923C25.1034 3.134 25.9543 2.92638 26.8998 2.92638C27.8453 2.92638 28.6903 3.134 29.4348 3.54923C30.1912 3.9526 30.7762 4.52206 31.1899 5.25762C31.6153 5.98131 31.8281 6.80584 31.8281 7.73122C31.8281 8.6566 31.6153 9.48706 31.1899 10.2226C30.7762 10.9463 30.1912 11.5158 29.4348 11.931C28.6903 12.3344 27.8453 12.5361 26.8998 12.5361ZM26.8998 10.6675C27.7271 10.6675 28.4007 10.4006 28.9207 9.8667C29.4408 9.32097 29.7008 8.60914 29.7008 7.73122C29.7008 6.8533 29.4408 6.1474 28.9207 5.61353C28.4007 5.0678 27.7271 4.79493 26.8998 4.79493C26.0725 4.79493 25.3989 5.0678 24.8789 5.61353C24.3589 6.1474 24.0989 6.8533 24.0989 7.73122C24.0989 8.60914 24.3589 9.32097 24.8789 9.8667C25.3989 10.4006 26.0725 10.6675 26.8998 10.6675ZM42.606 8.28289C42.6296 8.02188 42.6414 7.8024 42.6414 7.62445C42.6414 6.74652 42.4346 5.95165 42.021 5.23982C41.6191 4.51613 41.0519 3.9526 40.3191 3.54923C39.5982 3.134 38.7768 2.92638 37.855 2.92638C36.9332 2.92638 36.1059 3.134 35.3731 3.54923C34.6522 3.9526 34.0849 4.52206 33.6713 5.25762C33.2695 5.98131 33.0686 6.80584 33.0686 7.73122C33.0686 8.6566 33.2695 9.48706 33.6713 10.2226C34.0849 10.9463 34.6522 11.5158 35.3731 11.931C36.1059 12.3344 36.9332 12.5361 37.855 12.5361C38.8477 12.5361 39.7459 12.3047 40.5496 11.842C41.365 11.3793 41.9382 10.7209 42.2691 9.8667L40.3546 9.54638C40.13 9.89043 39.805 10.1633 39.3796 10.365C38.9659 10.5667 38.4991 10.6675 37.9791 10.6675C37.2109 10.6675 36.5786 10.454 36.0822 10.0269C35.5859 9.5879 35.2904 9.00658 35.1959 8.28289H42.606ZM36.2418 5.23982C36.7027 4.88391 37.2404 4.70595 37.855 4.70595C38.4814 4.70595 39.0191 4.88984 39.4682 5.25762C39.9291 5.61353 40.2482 6.08809 40.4255 6.68127H35.32C35.4854 6.07622 35.7927 5.59574 36.2418 5.23982ZM52.6328 12.3581H49.956L46.765 8.67439H46.2686V12.3581H44.23V3.10434H46.2686V6.69907H46.765L49.8496 3.10434H52.2783L48.3959 7.55326L52.6328 12.3581ZM56.0908 12.3581H58.1294V4.97289H61.3204V3.10434H52.8998V4.97289H56.0908V12.3581Z" fill="#AAAEB3"/>
</svg>
